<svg width="217" height="64" viewBox="0 0 217 64" fill="none" xmlns="http://www.w3.org/2000/svg">
<path d="M214.623 56.4423C214.623 57.2477 214.465 58.0452 214.156 58.7893C213.847 59.5333 213.395 60.2093 212.825 60.7785C212.255 61.3477 211.578 61.7991 210.833 62.1067C210.088 62.4144 209.29 62.5723 208.484 62.5714H7.57164C5.94324 62.5731 4.38083 61.9284 3.22802 60.779C2.07522 59.6296 1.42641 58.0697 1.42429 56.4423V7.56409C1.42641 5.93595 2.07496 4.3752 3.22754 3.22453C4.38011 2.07386 5.9425 1.42733 7.57164 1.42691H208.482C209.289 1.42691 210.087 1.58566 210.832 1.89411C211.577 2.20255 212.254 2.65463 212.824 3.22454C213.394 3.79446 213.847 4.47103 214.155 5.21561C214.463 5.9602 214.622 6.75822 214.622 7.56409L214.623 56.4423Z" fill="white"/>
<path d="M208.485 63.9967H7.57251C5.5665 63.9963 3.64259 63.2006 2.22293 61.7842C0.803266 60.3678 0.00381688 58.4465 0 56.4417L0 7.56512C0.0029676 5.55936 0.801889 3.63666 2.22151 2.21882C3.64112 0.800978 5.56551 0.00376814 7.57251 0.0020752L208.483 0.0020752C210.49 0.00461288 212.414 0.802094 213.833 2.21975C215.253 3.63741 216.052 5.55962 216.056 7.56512V56.4417C216.059 60.6089 212.656 63.9967 208.485 63.9967Z" fill="#A6A6A6"/>
<path d="M214.623 56.4423C214.623 57.2477 214.465 58.0452 214.156 58.7893C213.847 59.5333 213.395 60.2093 212.825 60.7785C212.255 61.3477 211.578 61.7991 210.833 62.1067C210.088 62.4144 209.29 62.5723 208.484 62.5714H7.57164C5.94324 62.5731 4.38083 61.9284 3.22802 60.779C2.07522 59.6296 1.42641 58.0697 1.42429 56.4423V7.56409C1.42641 5.93595 2.07496 4.3752 3.22754 3.22453C4.38011 2.07386 5.9425 1.42733 7.57164 1.42691H208.482C209.289 1.42691 210.087 1.58566 210.832 1.89411C211.577 2.20255 212.254 2.65463 212.824 3.22454C213.394 3.79446 213.847 4.47103 214.155 5.21561C214.463 5.9602 214.622 6.75822 214.622 7.56409L214.623 56.4423Z" fill="black"/>
<path d="M48.2438 31.663C48.1974 26.5052 52.4697 23.9959 52.665 23.8791C50.2455 20.3537 46.4952 19.872 45.1774 19.8336C42.0276 19.5023 38.9724 21.7171 37.3679 21.7171C35.7314 21.7171 33.2606 19.8656 30.5976 19.92C27.1709 19.9728 23.9651 21.9556 22.2069 25.0345C18.5784 31.3125 21.2845 40.5383 24.7609 45.6129C26.4999 48.0998 28.532 50.8731 31.1917 50.7755C33.7938 50.6698 34.7658 49.1192 37.9059 49.1192C41.0172 49.1192 41.93 50.7755 44.6425 50.7131C47.4352 50.6699 49.1934 48.2166 50.8716 45.7089C52.8812 42.862 53.6882 40.055 53.7203 39.911C53.6562 39.8886 48.2983 37.8434 48.2438 31.663ZM43.1197 16.4953C44.5192 14.7462 45.4768 12.3665 45.211 9.95166C43.1854 10.0413 40.6521 11.3519 39.1934 13.0627C37.9027 14.5701 36.7498 17.041 37.0476 19.3647C39.3231 19.5343 41.6593 18.2172 43.1197 16.4953Z" fill="white"/>
<path d="M208.484 0.00271606H100.87L143.02 63.9974H208.484C210.491 63.9957 212.415 63.1989 213.834 61.7818C215.254 60.3646 216.053 58.4427 216.057 56.4375V7.56576C216.053 5.56013 215.254 3.63768 213.835 2.21993C212.415 0.802177 210.491 0.00483154 208.484 0.00271606V0.00271606Z" fill="url(#paint0_linear)"/>
<path d="M72.3956 21.5926C71.4461 21.5926 70.6246 21.5462 69.9409 21.4678V11.1714C70.8972 11.0238 71.8635 10.951 72.8312 10.9538C76.7463 10.9538 78.5494 12.8789 78.5494 16.0171C78.5494 19.637 76.4197 21.5926 72.3956 21.5926ZM72.9689 12.274C72.4405 12.274 71.9905 12.306 71.6174 12.3828V20.2099C71.8192 20.2419 72.2067 20.2564 72.7511 20.2564C75.3164 20.2564 76.7768 18.7969 76.7768 16.0636C76.7768 13.6263 75.4557 12.274 72.9689 12.274ZM84.1683 21.671C81.9617 21.671 80.5318 20.0243 80.5318 17.7887C80.5318 15.4586 81.9922 13.7975 84.2932 13.7975C86.4678 13.7975 87.9297 15.3658 87.9297 17.6655C87.9297 20.0243 86.4229 21.671 84.1683 21.671ZM84.2324 15.0234C83.0202 15.0234 82.2436 16.1564 82.2436 17.7407C82.2436 19.2946 83.0362 20.4276 84.2163 20.4276C85.3965 20.4276 86.1891 19.2162 86.1891 17.7087C86.1891 16.1724 85.4125 15.0234 84.2324 15.0234ZM100.513 13.9527L98.1508 21.4998H96.6119L95.6335 18.2224C95.3903 17.4207 95.1877 16.6072 95.0267 15.7851H94.9946C94.8713 16.6077 94.6375 17.4318 94.3893 18.2224L93.3485 21.4998H91.7936L89.5711 13.9527H91.2956L92.1507 17.5406C92.3525 18.3952 92.5222 19.2017 92.6631 19.9635H92.6952C92.8185 19.3282 93.0202 18.5344 93.3165 17.5566L94.3893 13.9543H95.7568L96.7833 17.4798C97.0315 18.3344 97.2332 19.1729 97.3902 19.9651H97.435C97.5439 19.1889 97.7152 18.3648 97.9474 17.4798L98.8649 13.9543L100.513 13.9527ZM109.208 21.4998H107.53V17.1662C107.53 15.8315 107.017 15.1626 106.007 15.1626C105.012 15.1626 104.329 16.0171 104.329 17.0109V21.4998H102.65V16.11C102.65 15.4426 102.634 14.7273 102.588 13.9511H104.064L104.143 15.1162H104.189C104.641 14.3096 105.557 13.7975 106.583 13.7975C108.168 13.7975 109.209 15.0089 109.209 16.9805L109.208 21.4998ZM113.835 21.4998H112.156V10.4897H113.835V21.4998ZM119.954 21.671C117.749 21.671 116.317 20.0243 116.317 17.7887C116.317 15.4586 117.778 13.7975 120.077 13.7975C122.253 13.7975 123.714 15.3658 123.714 17.6655C123.715 20.0243 122.207 21.671 119.954 21.671ZM120.016 15.0234C118.804 15.0234 118.028 16.1564 118.028 17.7407C118.028 19.2946 118.822 20.4276 119.999 20.4276C121.181 20.4276 121.972 19.2162 121.972 17.7087C121.973 16.1724 121.198 15.0234 120.016 15.0234ZM130.33 21.4998L130.209 20.6308H130.164C129.651 21.3302 128.904 21.671 127.956 21.671C126.602 21.671 125.642 20.7236 125.642 19.4498C125.642 17.587 127.257 16.6237 130.055 16.6237V16.4844C130.055 15.4906 129.528 14.9929 128.487 14.9929C127.743 14.9929 127.089 15.1802 126.514 15.5531L126.173 14.4504C126.871 14.0152 127.743 13.7975 128.766 13.7975C130.739 13.7975 131.735 14.8377 131.735 16.9197V19.6994C131.735 20.4612 131.768 21.0517 131.843 21.5014L130.33 21.4998ZM130.1 17.7407C128.236 17.7407 127.301 18.192 127.301 19.2626C127.301 20.0547 127.783 20.442 128.452 20.442C129.305 20.442 130.1 19.7907 130.1 18.9057V17.7407ZM139.884 21.4998L139.805 20.2884H139.759C139.277 21.2037 138.466 21.671 137.334 21.671C135.514 21.671 134.165 20.0707 134.165 17.8191C134.165 15.4586 135.563 13.7959 137.472 13.7959C138.482 13.7959 139.198 14.1368 139.602 14.8217H139.635V10.4897H141.315V19.4658C141.315 20.1955 141.333 20.8789 141.378 21.4998H139.884ZM139.635 17.0589C139.635 16.0027 138.936 15.1018 137.868 15.1018C136.623 15.1018 135.863 16.2044 135.863 17.7567C135.863 19.2786 136.652 20.3204 137.834 20.3204C138.889 20.3204 139.635 19.4034 139.635 18.3168V17.0589ZM151.965 21.671C149.76 21.671 148.33 20.0243 148.33 17.7887C148.33 15.4586 149.791 13.7975 152.09 13.7975C154.266 13.7975 155.727 15.3658 155.727 17.6655C155.728 20.0243 154.221 21.671 151.965 21.671ZM152.028 15.0234C150.817 15.0234 150.041 16.1564 150.041 17.7407C150.041 19.2946 150.833 20.4276 152.012 20.4276C153.193 20.4276 153.985 19.2162 153.985 17.7087C153.988 16.1724 153.211 15.0234 152.028 15.0234ZM164.752 21.4998H163.072V17.1662C163.072 15.8315 162.559 15.1626 161.549 15.1626C160.555 15.1626 159.872 16.0171 159.872 17.0109V21.4998H158.193V16.11C158.193 15.4426 158.177 14.7273 158.13 13.9511H159.607L159.685 15.1162H159.732C160.181 14.3096 161.099 13.7959 162.124 13.7959C163.709 13.7959 164.752 15.0073 164.752 16.9789V21.4998ZM176.042 15.2106H174.196V18.8753C174.196 19.8083 174.519 20.274 175.173 20.274C175.469 20.274 175.717 20.2419 175.917 20.1955L175.964 21.4694C175.639 21.5942 175.203 21.6566 174.662 21.6566C173.339 21.6566 172.548 20.9269 172.548 19.0161V15.2106H171.447V13.9527H172.548V12.5701L174.196 12.0724V13.9511H176.042V15.2106ZM184.926 21.4998H183.25V17.1982C183.25 15.8475 182.739 15.1642 181.727 15.1642C180.857 15.1642 180.047 15.7547 180.047 16.9501V21.4998H178.371V10.4897H180.047V15.0234H180.081C180.609 14.2008 181.375 13.7959 182.351 13.7959C183.949 13.7959 184.926 15.0378 184.926 17.0109V21.4998ZM194.028 18.1295H188.992C189.024 19.5586 189.97 20.3652 191.371 20.3652C192.116 20.3652 192.801 20.2403 193.407 20.0083L193.668 21.1733C192.953 21.4838 192.113 21.639 191.134 21.639C188.773 21.639 187.375 20.1475 187.375 17.8351C187.375 15.521 188.806 13.7815 190.945 13.7815C192.875 13.7815 194.086 15.2106 194.086 17.3694C194.096 17.6242 194.077 17.8793 194.028 18.1295ZM192.489 16.9341C192.489 15.7691 191.901 14.9465 190.829 14.9465C189.865 14.9465 189.102 15.7851 188.993 16.9341H192.489Z" fill="white"/>
<path d="M85.9339 50.4189H82.2973L80.3053 44.1633H73.3813L71.4838 50.4189H67.9434L74.8049 29.122H79.0419L85.9339 50.4189ZM79.7049 41.5388L77.9034 35.9777C77.7128 35.4096 77.3542 34.0718 76.8289 31.9658H76.7649C76.5535 32.8715 76.2156 34.2094 75.7529 35.9777L73.9818 41.5388H79.7049ZM103.545 42.5518C103.545 45.1635 102.836 47.2279 101.415 48.7434C100.144 50.0924 98.5633 50.7662 96.6786 50.7662C94.6433 50.7662 93.1797 50.0412 92.291 48.5882V56.6457H88.8771V40.1097C88.8771 38.4694 88.8338 36.7875 88.7506 35.0624H91.753L91.9435 37.4964H92.0076C93.1461 35.6625 94.8739 34.7455 97.1926 34.7455C99.0052 34.7455 100.518 35.4608 101.729 36.8931C102.938 38.3286 103.545 40.2137 103.545 42.5518ZM100.067 42.6766C100.067 41.1819 99.7306 39.9497 99.0549 38.9783C98.3167 37.9685 97.3255 37.4628 96.0829 37.4628C95.2406 37.4628 94.4752 37.7445 93.7914 38.2998C93.1061 38.8599 92.6577 39.5912 92.4479 40.497C92.3543 40.8357 92.3011 41.1844 92.2894 41.5356V44.0977C92.2894 45.2131 92.6321 46.1557 93.3174 46.927C94.0028 47.6952 94.8931 48.0809 95.9884 48.0809C97.2742 48.0809 98.275 47.5832 98.9908 46.5958C99.7082 45.6052 100.067 44.2993 100.067 42.6766ZM121.218 42.5518C121.218 45.1635 120.509 47.2279 119.089 48.7434C117.816 50.0924 116.237 50.7662 114.35 50.7662C112.315 50.7662 110.852 50.0412 109.963 48.5882V56.6457H106.549V40.1097C106.549 38.4694 106.506 36.7875 106.422 35.0624H109.425L109.615 37.4964H109.679C110.816 35.6625 112.544 34.7455 114.864 34.7455C116.676 34.7455 118.189 35.4608 119.403 36.8931C120.61 38.3286 121.218 40.2137 121.218 42.5518ZM117.739 42.6766C117.739 41.1819 117.401 39.9497 116.725 38.9783C115.987 37.9685 114.999 37.4628 113.756 37.4628C112.914 37.4628 112.149 37.7445 111.462 38.2998C110.776 38.8599 110.33 39.5912 110.12 40.497C110.016 40.9195 109.96 41.2635 109.96 41.5356V44.0977C109.96 45.2131 110.304 46.1557 110.986 46.927C111.671 47.6936 112.562 48.0809 113.66 48.0809C114.948 48.0809 115.949 47.5832 116.663 46.5958C117.38 45.6052 117.739 44.2993 117.739 42.6766ZM140.978 44.445C140.978 46.2581 140.344 47.732 139.084 48.8698C137.697 50.1116 135.761 50.7342 133.279 50.7342C130.986 50.7342 129.148 50.2925 127.761 49.4075L128.551 46.5638C130.048 47.4503 131.692 47.892 133.483 47.892C134.77 47.892 135.771 47.6008 136.485 47.0231C137.201 46.4437 137.563 45.6692 137.563 44.7026C137.563 43.8368 137.263 43.1119 136.676 42.5214C136.085 41.9325 135.108 41.3836 133.736 40.8795C130.005 39.4888 128.138 37.4548 128.138 34.7791C128.138 33.0316 128.797 31.6009 130.114 30.4823C131.43 29.3653 133.175 28.8068 135.347 28.8068C137.286 28.8068 138.901 29.1444 140.184 29.8182L139.327 32.5995C138.12 31.9466 136.757 31.6201 135.233 31.6201C134.029 31.6201 133.084 31.9162 132.408 32.5051C131.84 33.0316 131.552 33.6733 131.552 34.435C131.552 35.2752 131.88 35.9729 132.533 36.5202C133.1 37.0243 134.134 37.5732 135.63 38.1622C137.465 38.9015 138.813 39.7625 139.676 40.7514C140.546 41.7404 140.978 42.9743 140.978 44.445ZM152.295 37.6228H148.532V45.0787C148.532 46.975 149.195 47.9208 150.524 47.9208C151.134 47.9208 151.64 47.8696 152.04 47.7624L152.135 50.3533C151.462 50.6045 150.576 50.731 149.48 50.731C148.131 50.731 147.078 50.3197 146.317 49.4971C145.56 48.6746 145.179 47.2967 145.179 45.3571V37.6164H142.937V35.056H145.179V32.2442L148.532 31.2328V35.056H152.295V37.6228ZM169.24 42.6142C169.24 44.9747 168.564 46.9126 167.216 48.4281C165.805 49.9884 163.928 50.7662 161.589 50.7662C159.331 50.7662 157.536 50.0188 156.197 48.5257C154.858 47.0294 154.189 45.1443 154.189 42.8703C154.189 40.4906 154.881 38.5414 156.259 37.0259C157.641 35.5088 159.502 34.7503 161.842 34.7503C164.096 34.7503 165.907 35.4992 167.278 36.9939C168.588 38.4438 169.24 40.3162 169.24 42.6142ZM165.701 42.6926C165.701 41.286 165.396 40.0793 164.786 39.0695C164.071 37.8501 163.046 37.2404 161.718 37.2404C160.351 37.2404 159.302 37.8501 158.588 39.0695C157.976 40.0793 157.672 41.3068 157.672 42.7566C157.672 44.1649 157.976 45.3747 158.588 46.3813C159.326 47.6008 160.356 48.2105 161.689 48.2105C162.994 48.2105 164.018 47.588 164.758 46.3509C165.385 45.3171 165.701 44.1025 165.701 42.6926ZM180.341 38.0629C179.986 37.9989 179.626 37.9673 179.265 37.9685C178.064 37.9685 177.136 38.4198 176.482 39.3288C175.915 40.1289 175.63 41.1403 175.63 42.3614V50.4189H172.216V39.8985C172.219 38.2864 172.186 36.6745 172.117 35.064H175.091L175.216 38.0021H175.31C175.672 36.9923 176.239 36.1778 177.017 35.5681C177.729 35.0353 178.595 34.7468 179.485 34.7455C179.8 34.7455 180.085 34.7679 180.338 34.8079L180.341 38.0629ZM195.61 42.0141C195.618 42.5328 195.576 43.051 195.485 43.5616H185.243C185.281 45.0787 185.778 46.2405 186.729 47.0407C187.592 47.7544 188.708 48.1129 190.079 48.1129C191.595 48.1129 192.979 47.8728 194.223 47.3879L194.758 49.7548C193.304 50.3885 191.587 50.7038 189.606 50.7038C187.224 50.7038 185.353 50.0028 183.992 48.6042C182.634 47.2039 181.954 45.3219 181.954 42.9647C181.954 40.6506 182.586 38.7223 183.853 37.1844C185.179 35.5425 186.971 34.7215 189.225 34.7215C191.44 34.7215 193.116 35.5425 194.255 37.1844C195.156 38.4854 195.61 40.0985 195.61 42.0141ZM192.354 41.1291C192.378 40.1161 192.154 39.244 191.691 38.5062C191.1 37.5556 190.191 37.0819 188.972 37.0819C187.856 37.0819 186.947 37.5444 186.255 38.4726C185.686 39.2104 185.349 40.0969 185.244 41.1259L192.354 41.1291Z" fill="white"/>
<defs>
<linearGradient id="paint0_linear" x1="158.461" y1="64.1673" x2="158.461" y2="-166.628" gradientUnits="userSpaceOnUse">
<stop stop-color="#1A1A1A" stop-opacity="0.1"/>
<stop offset="0.123" stop-color="#212121" stop-opacity="0.151"/>
<stop offset="0.308" stop-color="#353535" stop-opacity="0.227"/>
<stop offset="0.532" stop-color="#575757" stop-opacity="0.318"/>
<stop offset="0.783" stop-color="#858585" stop-opacity="0.421"/>
<stop offset="1" stop-color="#B3B3B3" stop-opacity="0.51"/>
</linearGradient>
</defs>
</svg>
