<svg width="216" height="64" viewBox="0 0 216 64" fill="none" xmlns="http://www.w3.org/2000/svg">
<path d="M207.927 63.9776H7.9972C3.51877 63.9776 0 60.4588 0 55.9804V7.9972C0 3.51877 3.51877 0 7.9972 0H207.927C212.406 0 215.924 3.51877 215.924 7.9972V55.9804C215.924 60.4588 212.406 63.9776 207.927 63.9776Z" fill="black"/>
<path d="M207.927 1.27955C211.606 1.27955 214.645 4.31849 214.645 7.9972V55.9804C214.645 59.6591 211.606 62.6981 207.927 62.6981H7.9972C4.31849 62.6981 1.27955 59.6591 1.27955 55.9804V7.9972C1.27955 4.31849 4.31849 1.27955 7.9972 1.27955H207.927ZM207.927 0H7.9972C3.51877 0 0 3.67871 0 7.9972V55.9804C0 60.4588 3.51877 63.9776 7.9972 63.9776H207.927C212.406 63.9776 215.924 60.4588 215.924 55.9804V7.9972C215.924 3.67871 212.406 0 207.927 0Z" fill="#A6A6A6"/>
<path d="M108.922 34.8678C105.083 34.8678 102.044 37.7468 102.044 41.7454C102.044 45.5841 105.083 48.623 108.922 48.623C112.761 48.623 115.799 45.744 115.799 41.7454C115.799 37.5869 112.761 34.8678 108.922 34.8678ZM108.922 45.744C106.843 45.744 105.083 43.9846 105.083 41.5855C105.083 39.1863 106.843 37.4269 108.922 37.4269C111.001 37.4269 112.761 39.0264 112.761 41.5855C112.761 43.9846 111.001 45.744 108.922 45.744ZM94.0471 34.8678C90.2084 34.8678 87.1695 37.7468 87.1695 41.7454C87.1695 45.5841 90.2084 48.623 94.0471 48.623C97.8857 48.623 100.925 45.744 100.925 41.7454C100.925 37.5869 97.8857 34.8678 94.0471 34.8678ZM94.0471 45.744C91.9678 45.744 90.2084 43.9846 90.2084 41.5855C90.2084 39.1863 91.9678 37.4269 94.0471 37.4269C96.1264 37.4269 97.8857 39.0264 97.8857 41.5855C97.8857 43.9846 96.1264 45.744 94.0471 45.744ZM76.2933 36.9471V39.8261H83.1709C83.011 41.4255 82.3712 42.7051 81.5715 43.5048C80.6118 44.4645 79.0124 45.5841 76.2933 45.5841C71.9748 45.5841 68.7759 42.2253 68.7759 37.9068C68.7759 33.5883 72.1348 30.2295 76.2933 30.2295C78.5325 30.2295 80.2919 31.1891 81.5715 32.3087L83.6507 30.2295C81.8913 28.63 79.6521 27.3505 76.4532 27.3505C70.6953 27.3505 65.737 32.1488 65.737 37.9068C65.737 43.6648 70.6953 48.4631 76.4532 48.4631C79.6521 48.4631 81.8913 47.5034 83.8107 45.4241C85.73 43.5048 86.3698 40.7858 86.3698 38.7065C86.3698 38.0667 86.3698 37.4269 86.2098 36.9471H76.2933ZM148.908 39.1863C148.268 37.5869 146.669 34.8678 143.15 34.8678C139.631 34.8678 136.752 37.5869 136.752 41.7454C136.752 45.5841 139.631 48.623 143.47 48.623C146.509 48.623 148.428 46.7037 149.068 45.5841L146.829 43.9846C146.029 45.1042 145.069 45.904 143.47 45.904C141.87 45.904 140.911 45.2642 140.111 43.8247L149.228 39.986L148.908 39.1863ZM139.631 41.4255C139.631 38.8664 141.71 37.4269 143.15 37.4269C144.27 37.4269 145.389 38.0667 145.709 38.8664L139.631 41.4255ZM132.114 47.9832H135.153V27.9902H132.114V47.9832ZM127.315 36.3073C126.516 35.5076 125.236 34.7079 123.637 34.7079C120.278 34.7079 117.079 37.7468 117.079 41.5855C117.079 45.4241 120.118 48.3031 123.637 48.3031C125.236 48.3031 126.516 47.5034 127.156 46.7037H127.315V47.6634C127.315 50.2225 125.876 51.662 123.637 51.662C121.877 51.662 120.598 50.3824 120.278 49.2628L117.719 50.3824C118.519 52.1418 120.438 54.381 123.797 54.381C127.315 54.381 130.194 52.3017 130.194 47.3435V35.1877H127.315V36.3073ZM123.797 45.744C121.717 45.744 119.958 43.9846 119.958 41.5855C119.958 39.1863 121.717 37.4269 123.797 37.4269C125.876 37.4269 127.475 39.1863 127.475 41.5855C127.475 43.9846 125.876 45.744 123.797 45.744ZM162.823 27.9902H155.626V47.9832H158.664V40.4659H162.823C166.182 40.4659 169.381 38.0667 169.381 34.2281C169.381 30.3894 166.182 27.9902 162.823 27.9902ZM162.983 37.5869H158.664V30.7093H162.983C165.222 30.7093 166.502 32.6286 166.502 34.0681C166.342 35.8275 165.062 37.5869 162.983 37.5869ZM181.377 34.7079C179.137 34.7079 176.898 35.6676 176.098 37.7468L178.817 38.8664C179.457 37.7468 180.417 37.4269 181.536 37.4269C183.136 37.4269 184.575 38.3866 184.735 39.986V40.146C184.256 39.8261 182.976 39.3463 181.696 39.3463C178.817 39.3463 175.938 40.9457 175.938 43.8247C175.938 46.5437 178.338 48.3031 180.897 48.3031C182.976 48.3031 183.936 47.3435 184.735 46.3838H184.895V47.9832H187.774V40.3059C187.454 36.7872 184.735 34.7079 181.377 34.7079ZM181.057 45.744C180.097 45.744 178.657 45.2642 178.657 43.9846C178.657 42.3852 180.417 41.9054 181.856 41.9054C183.136 41.9054 183.776 42.2253 184.575 42.5451C184.256 44.4645 182.656 45.744 181.057 45.744ZM197.851 35.1877L194.492 43.8247H194.332L190.813 35.1877H187.614L192.893 47.3435L189.854 54.0611H192.893L201.05 35.1877H197.851ZM170.98 47.9832H174.019V27.9902H170.98V47.9832Z" fill="white"/>
<path d="M16.6343 11.9959C16.1545 12.4757 15.9945 13.2754 15.9945 14.2351V49.5827C15.9945 50.5424 16.3144 51.3421 16.7942 51.8219L16.9542 51.9819L36.7872 32.1488V31.8289L16.6343 11.9959Z" fill="url(#paint0_linear)"/>
<path d="M43.185 38.8664L36.6273 32.3087V31.8289L43.185 25.2711L43.345 25.4311L51.1822 29.9095C53.4214 31.1891 53.4214 33.2683 51.1822 34.5479L43.185 38.8664Z" fill="url(#paint1_linear)"/>
<path d="M43.3452 38.7065L36.6275 31.9888L16.6345 51.9818C17.4342 52.7816 18.5538 52.7816 19.9933 52.1418L43.3452 38.7065Z" fill="url(#paint2_linear)"/>
<path opacity="0.2" d="M43.1852 38.5465L19.9933 51.6619C18.7138 52.4616 17.5942 52.3017 16.7945 51.6619L16.6345 51.8219L16.7945 51.9818C17.5942 52.6216 18.7138 52.7815 19.9933 51.9818L43.1852 38.5465Z" fill="black"/>
<path opacity="0.12" d="M16.6343 51.6619C16.1545 51.1821 15.9945 50.3824 15.9945 49.4227V49.5827C15.9945 50.5423 16.3144 51.3421 16.7942 51.8219V51.6619H16.6343ZM51.1822 34.0681L43.185 38.5465L43.3449 38.7065L51.1822 34.228C52.3018 33.5883 52.7816 32.7886 52.7816 31.9888C52.7816 32.7886 52.1419 33.4283 51.1822 34.0681Z" fill="black"/>
<path d="M43.3452 25.2712L19.9933 11.9958C18.5538 11.1961 17.4342 11.356 16.6345 12.1558L36.6275 31.9888L43.3452 25.2712Z" fill="url(#paint3_linear)"/>
<path opacity="0.25" d="M19.9931 12.1558L51.1822 29.9096C52.1419 30.5494 52.7816 31.1891 52.7816 31.9888C52.7816 31.1891 52.3018 30.3894 51.1822 29.7496L19.9931 11.9958C17.7539 10.7163 15.9945 11.676 15.9945 14.2351V14.395C15.9945 11.9958 17.7539 10.8762 19.9931 12.1558Z" fill="white"/>
<path d="M75.8133 16.3143C75.8133 17.5938 75.4934 18.7134 74.6937 19.5132C73.734 20.4728 72.6144 20.9527 71.1749 20.9527C69.7354 20.9527 68.6158 20.4728 67.6561 19.5132C66.6965 18.5535 66.2166 17.4339 66.2166 15.9944C66.2166 14.5549 66.6965 13.4353 67.6561 12.4756C68.6158 11.516 69.7354 11.0361 71.1749 11.0361C71.8147 11.0361 72.4545 11.1961 73.0942 11.516C73.734 11.8359 74.2139 12.1557 74.5337 12.6356L73.734 13.4353C73.0942 12.6356 72.2945 12.3157 71.1749 12.3157C70.2152 12.3157 69.2556 12.6356 68.6158 13.4353C67.8161 14.0751 67.4962 15.0347 67.4962 16.1543C67.4962 17.2739 67.8161 18.2336 68.6158 18.8734C69.4155 19.5132 70.2152 19.993 71.1749 19.993C72.2945 19.993 73.0942 19.6731 73.894 18.8734C74.3738 18.3936 74.6937 17.7538 74.6937 16.9541H71.1749V15.6745H75.8133V16.3143ZM83.1707 12.3157H78.8522V15.3546H82.8508V16.4742H78.8522V19.5132H83.1707V20.7927H77.5727V11.1961H83.1707V12.3157ZM88.4489 20.7927H87.1693V12.3157H84.4503V11.1961H91.1679V12.3157H88.4489V20.7927ZM95.8063 20.7927V11.1961H97.0858V20.7927H95.8063ZM102.524 20.7927H101.244V12.3157H98.5253V11.1961H105.083V12.3157H102.364V20.7927H102.524ZM117.719 19.5132C116.759 20.4728 115.639 20.9527 114.2 20.9527C112.76 20.9527 111.641 20.4728 110.681 19.5132C109.721 18.5535 109.242 17.4339 109.242 15.9944C109.242 14.5549 109.721 13.4353 110.681 12.4756C111.641 11.516 112.76 11.0361 114.2 11.0361C115.639 11.0361 116.759 11.516 117.719 12.4756C118.678 13.4353 119.158 14.5549 119.158 15.9944C119.158 17.4339 118.678 18.5535 117.719 19.5132ZM111.641 18.7134C112.281 19.3532 113.24 19.8331 114.2 19.8331C115.16 19.8331 116.119 19.5132 116.759 18.7134C117.399 18.0737 117.879 17.114 117.879 15.9944C117.879 14.8748 117.559 13.9151 116.759 13.2753C116.119 12.6356 115.16 12.1557 114.2 12.1557C113.24 12.1557 112.281 12.4756 111.641 13.2753C111.001 13.9151 110.521 14.8748 110.521 15.9944C110.521 17.114 110.841 18.0737 111.641 18.7134ZM120.918 20.7927V11.1961H122.357L126.995 18.7134V11.1961H128.275V20.7927H126.995L122.037 12.9555V20.7927H120.918Z" fill="white" stroke="white" stroke-width="0.5"/>
<defs>
<linearGradient id="paint0_linear" x1="28.6831" y1="13.9312" x2="11.6327" y2="30.9805" gradientUnits="userSpaceOnUse">
<stop stop-color="#00A0FF"/>
<stop offset="0.007" stop-color="#00A1FF"/>
<stop offset="0.26" stop-color="#00BEFF"/>
<stop offset="0.512" stop-color="#00D2FF"/>
<stop offset="0.76" stop-color="#00DFFF"/>
<stop offset="1" stop-color="#00E3FF"/>
</linearGradient>
<linearGradient id="paint1_linear" x1="54.1156" y1="31.9904" x2="15.4139" y2="31.9904" gradientUnits="userSpaceOnUse">
<stop stop-color="#FFE000"/>
<stop offset="0.409" stop-color="#FFBD00"/>
<stop offset="0.775" stop-color="#FFA500"/>
<stop offset="1" stop-color="#FF9C00"/>
</linearGradient>
<linearGradient id="paint2_linear" x1="39.7096" y1="38.3441" x2="10.6692" y2="67.3846" gradientUnits="userSpaceOnUse">
<stop stop-color="#FF3A44"/>
<stop offset="1" stop-color="#C31162"/>
</linearGradient>
<linearGradient id="paint3_linear" x1="11.6715" y1="9.07276" x2="24.5952" y2="21.9965" gradientUnits="userSpaceOnUse">
<stop stop-color="#32A071"/>
<stop offset="0.069" stop-color="#2DA771"/>
<stop offset="0.476" stop-color="#15CF74"/>
<stop offset="0.801" stop-color="#06E775"/>
<stop offset="1" stop-color="#00F076"/>
</linearGradient>
</defs>
</svg>
