<svg width="139" height="48" viewBox="0 0 139 48" fill="none" xmlns="http://www.w3.org/2000/svg">
<path d="M11.0892 8.6834C10.8339 8.70187 10.6345 8.91246 10.6326 9.16553L10.573 23.1124L9.61147 23.1789L9.66178 11.3564C9.66178 11.2234 9.60774 11.0959 9.51085 11.0036L7.50768 9.09164C7.40706 8.99558 7.27103 8.94756 7.13313 8.95679L0.609335 9.40937C0.354048 9.42785 0.154663 9.63843 0.1528 9.89151L0 45.5974C0 45.7304 0.0540389 45.8579 0.150936 45.9503L2.1541 47.864C2.25473 47.9601 2.39076 48.0081 2.52865 47.9989L9.05431 47.5463C9.3096 47.5278 9.50898 47.3172 9.51085 47.0642L9.5742 32.1364L10.5357 32.0699L10.4798 44.8733C10.4798 45.0063 10.5339 45.1338 10.6308 45.2261L12.6339 47.1399C12.7345 47.236 12.8706 47.284 13.0085 47.2748L19.5416 46.8222C19.7969 46.8037 19.9963 46.5931 19.9981 46.34L20.1509 10.6341C20.1509 10.5011 20.0969 10.3736 20 10.2813L17.995 8.36382C17.8943 8.26776 17.7583 8.21973 17.6204 8.22897L11.0892 8.6834ZM4.90077 26.1013L6.37286 27.5071L5.42066 27.5736C5.13556 27.5939 4.89518 27.3686 4.89704 27.0878L4.90077 26.1013ZM15.252 29.1382L13.7799 27.7325L14.7321 27.666C15.0172 27.6456 15.2576 27.871 15.2557 28.1518L15.252 29.1382Z" fill="black"/>
<path d="M40.026 10.6489C40.1024 10.7117 40.1826 10.7708 40.2534 10.8391L37.9427 8.63166C37.8608 8.55223 37.775 8.47649 37.6875 8.40444C37.667 8.38782 37.6409 8.37674 37.6204 8.36011C37.3837 8.17169 37.1284 8.00359 36.8527 7.85765C36.834 7.84842 36.8191 7.83364 36.8005 7.8244C36.7446 7.79669 36.6812 7.77453 36.6253 7.74866C36.5117 7.69509 36.3961 7.64337 36.2769 7.59719C36.1856 7.56209 36.0924 7.53069 35.9973 7.49928C35.8744 7.45864 35.7495 7.4217 35.6191 7.38845C35.5203 7.36258 35.4178 7.33857 35.3153 7.31825C35.1812 7.29054 35.0451 7.26653 34.9073 7.24621C34.801 7.22958 34.693 7.2148 34.5812 7.20372C34.4358 7.18894 34.2867 7.17786 34.1358 7.16862C34.0613 7.16493 33.9923 7.15384 33.9178 7.15199C33.8842 7.15015 33.847 7.15569 33.8134 7.15384C33.5041 7.1483 33.1873 7.15015 32.8556 7.17416L29.3245 7.418C28.9909 7.44202 28.6723 7.48266 28.3611 7.53253C28.3257 7.53807 28.2884 7.53992 28.2549 7.54546C28.212 7.55285 28.1729 7.56763 28.13 7.57502C27.7648 7.64337 27.4089 7.7228 27.0772 7.8281C27.0698 7.82994 27.0623 7.83179 27.0548 7.83364C27.053 7.83364 27.0511 7.83548 27.0493 7.83548C26.7846 7.92046 26.5312 8.02021 26.2871 8.12735C26.2648 8.13659 26.2405 8.14398 26.2182 8.15322C26.153 8.18277 26.0952 8.21972 26.0337 8.25112C25.9033 8.31578 25.7747 8.38043 25.6498 8.45247C25.6182 8.47095 25.5827 8.48572 25.5511 8.5042C25.4952 8.53745 25.4449 8.57809 25.389 8.61503C25.2827 8.68338 25.1784 8.75173 25.0796 8.82562C25.0442 8.85148 25.0051 8.87365 24.9715 8.89951C24.9268 8.93276 24.8896 8.9734 24.8467 9.0085C24.7405 9.09532 24.638 9.18399 24.5392 9.27636C24.502 9.31146 24.4591 9.34286 24.4218 9.37796C24.3939 9.40567 24.3734 9.43707 24.3454 9.46478C24.2001 9.61256 24.0641 9.76773 23.9355 9.93214C23.9094 9.96539 23.8777 9.9931 23.8516 10.0263C23.8461 10.0337 23.8423 10.0448 23.8349 10.0522C23.628 10.3293 23.4473 10.6286 23.2852 10.9463C23.2591 10.998 23.2293 11.0497 23.205 11.1033C23.0541 11.4192 22.9237 11.7535 22.8156 12.1082C22.797 12.171 22.7783 12.2357 22.7597 12.3003C22.6572 12.6643 22.5752 13.0429 22.5193 13.4438C22.5118 13.4974 22.5081 13.5546 22.5007 13.6101C22.4485 14.0368 22.4131 14.4801 22.4112 14.9456L22.2864 44.0549C22.2864 44.1879 22.3404 44.3154 22.4373 44.4078L24.4405 46.3215C24.5411 46.4176 24.6771 46.4656 24.815 46.4564L31.3481 46.0038C31.6034 45.9853 31.8028 45.7747 31.8047 45.5217L31.8569 33.5661L32.4215 33.5273L32.3786 43.3567C32.3786 43.4897 32.4326 43.6171 32.5295 43.7095L34.5327 45.6233C34.6333 45.7193 34.7694 45.7674 34.9073 45.7581L41.4404 45.3055C41.6957 45.2871 41.895 45.0765 41.8969 44.8234L42.0218 15.9579C42.0255 13.5362 41.336 11.7517 40.026 10.6489ZM37.2067 13.9167L37.1992 15.6217C37.0688 15.0712 36.8266 14.615 36.4651 14.2788C36.4725 14.2862 36.4818 14.2899 36.4893 14.2954L34.1787 12.0879C34.1377 12.0491 34.0948 12.0103 34.0501 11.9734C34.0352 11.9623 34.0184 11.9549 34.0035 11.942L35.1532 11.8625C35.7178 11.8237 36.2172 11.8404 36.6626 11.9069C36.8582 11.9364 37.0166 12.0842 37.0558 12.2763C37.1583 12.7548 37.2104 13.296 37.2067 13.9167ZM37.1359 30.5939L35.6638 29.1881L36.616 29.1216C36.9011 29.1013 37.1415 29.3266 37.1396 29.6074L37.1359 30.5939ZM32.455 24.5681L31.8904 24.6069L31.9239 16.9333C31.9258 16.4124 31.9836 16.2295 32.4923 16.1593L32.455 24.5681ZM34.788 16.368C34.8066 16.4641 34.8104 16.5842 34.8085 16.7319C34.8104 16.5842 34.8066 16.4641 34.788 16.368ZM34.6855 16.1482C34.7395 16.1999 34.7712 16.272 34.7899 16.368C34.7712 16.272 34.7395 16.1999 34.6855 16.1482ZM36.1446 14.0405C36.1632 14.0534 36.18 14.0663 36.1967 14.0793C36.1688 14.0589 36.1408 14.0386 36.1129 14.0202C36.1241 14.0257 36.1334 14.0331 36.1446 14.0405ZM27.1722 27.5292L28.6443 28.935L27.6921 29.0015C27.407 29.0218 27.1666 28.7965 27.1685 28.5157L27.1722 27.5292ZM36.1222 9.36133C36.2321 9.36318 36.3384 9.37057 36.4446 9.37611H36.4464C36.3402 9.37057 36.2321 9.36318 36.1222 9.36133ZM37.9316 9.59778C37.8682 9.58116 37.803 9.56638 37.7378 9.55345C37.8011 9.56823 37.8663 9.58116 37.9278 9.59778C37.9297 9.59778 37.9297 9.59778 37.9316 9.59778ZM37.2179 9.4537C37.1694 9.44631 37.1191 9.44076 37.0688 9.43338C37.1173 9.44076 37.1676 9.44631 37.2179 9.4537C37.216 9.4537 37.2179 9.4537 37.2179 9.4537ZM38.3862 9.73633C38.4533 9.75849 38.5204 9.78066 38.5856 9.80652C38.5856 9.80652 38.5875 9.80652 38.5875 9.80837C38.5241 9.78251 38.4552 9.76034 38.3862 9.73633ZM38.7496 13.0466C38.662 12.9303 38.5838 12.8028 38.4813 12.7049C38.5856 12.8046 38.6639 12.9303 38.7496 13.0466ZM39.1633 10.067C39.1092 10.0393 39.0515 10.0134 38.9956 9.98571C39.0515 10.0134 39.1074 10.0374 39.1633 10.067ZM39.4596 15.0084C39.5006 15.3502 39.5192 15.7215 39.5173 16.1242C39.5211 15.7215 39.5006 15.3502 39.4596 15.0084ZM38.9471 13.3034C39.0273 13.442 39.0832 13.6082 39.1446 13.7671C39.0832 13.6101 39.0273 13.442 38.9471 13.3034ZM39.2714 14.07C39.3291 14.264 39.3627 14.4875 39.3999 14.7073C39.3627 14.4875 39.3291 14.264 39.2714 14.07Z" fill="black"/>
<path d="M54.5421 5.67048C54.2868 5.68896 54.0874 5.89955 54.0855 6.15262L54.0688 9.87487L53.5563 8.22896C53.5321 8.14952 53.4874 8.07933 53.4278 8.02206L51.365 6.05102C51.2643 5.95496 51.1283 5.90693 50.9904 5.91617L44.7871 6.34659C44.5318 6.36506 44.3325 6.57565 44.3306 6.82872L44.1778 42.5346C44.1778 42.6676 44.2318 42.7951 44.3287 42.8875L46.3319 44.8012C46.4325 44.8973 46.5685 44.9453 46.7064 44.9361L53.2396 44.4835C53.4948 44.465 53.6942 44.2544 53.6961 44.0014L53.7408 33.5994L53.9644 34.2773L53.9309 41.8604C53.9309 41.9934 53.9849 42.1208 54.0818 42.2132L56.085 44.127C56.1856 44.223 56.3216 44.2711 56.4595 44.2618L62.9852 43.8093C63.2405 43.7908 63.4399 43.5802 63.4417 43.3271L63.5945 7.6212C63.5945 7.4882 63.5405 7.36074 63.4436 7.26837L61.4404 5.3546C61.3398 5.25854 61.2038 5.21051 61.0659 5.21975L54.5421 5.67048ZM58.6714 32.5631C58.6695 33.1136 57.8888 33.2355 57.7155 32.7127L55.0377 24.6106L56.1856 25.7078C56.303 25.8205 56.4707 25.8667 56.631 25.8316L58.1031 25.5102C58.4105 25.4437 58.6993 25.6746 58.6993 25.9868L58.6714 32.5631ZM50.0736 10.8299L52.8669 19.8317L51.6072 18.6291C51.488 18.5146 51.3184 18.4684 51.1581 18.5053L49.6991 18.8378C49.3916 18.908 49.0972 18.6753 49.0991 18.3631L49.1307 10.8964L50.0736 10.8299Z" fill="black"/>
<path d="M83.5348 7.93344L81.2223 5.72595C81.1366 5.64467 81.0472 5.56524 80.9559 5.4895C80.9335 5.47103 80.9074 5.45994 80.885 5.44332C80.6372 5.24566 80.3689 5.06832 80.0782 4.91685C80.0595 4.90761 80.0446 4.89283 80.026 4.88175C79.9664 4.85034 79.8993 4.82818 79.8378 4.80047C79.7167 4.74505 79.5937 4.68963 79.467 4.6416C79.3701 4.60466 79.2695 4.57141 79.1707 4.54C79.0403 4.49751 78.9061 4.45872 78.7701 4.42362C78.6639 4.39591 78.5558 4.3719 78.4458 4.34973C78.3042 4.32018 78.1589 4.29431 78.0117 4.27399C77.898 4.25737 77.7825 4.24074 77.6651 4.22966C77.5104 4.21303 77.3539 4.20195 77.1936 4.19456C77.1154 4.19087 77.0446 4.17978 76.9644 4.17794C76.9272 4.17609 76.8862 4.18163 76.847 4.17978C76.5135 4.17239 76.1725 4.17609 75.8147 4.20195L72.5761 4.42732C72.2593 4.44949 71.9556 4.48828 71.6612 4.53631C71.6295 4.54185 71.5959 4.54185 71.5661 4.54739C71.5233 4.55478 71.4841 4.56956 71.4413 4.57695C71.1152 4.63791 70.7984 4.7118 70.5003 4.80416C70.476 4.81155 70.4481 4.81525 70.4239 4.82263C70.4145 4.82633 70.4071 4.83002 70.3959 4.83372C70.1406 4.91685 69.8965 5.01106 69.6599 5.11635C69.645 5.12189 69.63 5.12743 69.6151 5.13298C69.5481 5.16438 69.4884 5.20133 69.4232 5.23458C69.2928 5.29923 69.1642 5.36389 69.0412 5.43593C69.0188 5.44886 68.9946 5.45994 68.9723 5.47287C68.9089 5.51167 68.8511 5.556 68.7896 5.59664C68.6872 5.66314 68.5828 5.73149 68.4859 5.80354C68.4598 5.82201 68.4319 5.83863 68.4076 5.85711C68.3573 5.8959 68.3145 5.94023 68.266 5.98087C68.1617 6.06585 68.0592 6.15267 67.9623 6.24503C67.9325 6.27274 67.8989 6.29676 67.871 6.32447C67.8393 6.35587 67.8132 6.39282 67.7834 6.42422C67.6511 6.56092 67.5263 6.70316 67.407 6.85279C67.3772 6.89158 67.3399 6.92298 67.312 6.96177C67.3008 6.97655 67.2933 6.99318 67.284 7.00796C67.0809 7.28135 66.902 7.57876 66.7399 7.8928C66.7119 7.94637 66.684 8.00179 66.6579 8.05721C66.507 8.37678 66.3747 8.71484 66.2666 9.07136C66.248 9.13047 66.2331 9.19328 66.2163 9.25239C66.1138 9.62369 66.0299 10.0116 65.9722 10.4217C65.9647 10.4697 65.9629 10.5215 65.9554 10.5713C65.9014 11.0073 65.8678 11.4599 65.8641 11.9402L65.7672 34.3069C65.7579 36.5698 66.356 38.2767 67.5058 39.3759L69.8164 41.5833C69.8108 41.5778 69.8071 41.5723 69.8015 41.5667C70.9288 42.6548 72.591 43.1498 74.7358 43.002L84.746 42.3075C85.0013 42.289 85.2007 42.0784 85.2026 41.8253L85.2808 23.4912C85.2808 23.3582 85.2268 23.2307 85.1299 23.1383L83.1267 21.2246C83.0261 21.1285 82.8901 21.0805 82.7522 21.0897L75.8706 21.5663C75.5855 21.5866 75.3451 21.3613 75.347 21.0805L75.3749 14.397C75.3787 13.5732 75.5538 13.3016 75.8017 13.2L75.7886 16.0504C75.7886 16.1834 75.8427 16.3108 75.9396 16.4032L77.9427 18.317C78.0433 18.413 78.1794 18.461 78.3173 18.4518L84.8485 17.9992C85.1038 17.9808 85.3032 17.7702 85.305 17.5171L85.3237 13.0541C85.333 10.769 84.7069 9.03996 83.5087 7.91497C83.5124 7.91497 83.5236 7.9242 83.5348 7.93344ZM80.4937 12.9395C80.3297 12.136 79.9738 11.519 79.4465 11.1163C79.5173 11.1699 79.5937 11.2142 79.6589 11.2752L77.3483 9.06766C77.3054 9.02702 77.2607 8.98638 77.216 8.94944C77.2141 8.94759 77.2141 8.94759 77.2123 8.94759L78.1142 8.88478C78.8129 8.83676 79.4241 8.85708 79.9571 8.94759C80.1471 8.98084 80.2981 9.12493 80.3409 9.3115C80.4527 9.80473 80.5086 10.3681 80.5049 11.011L80.4937 12.9395ZM75.6209 36.2706C75.6265 36.2724 75.6302 36.278 75.6358 36.2798C75.6302 36.278 75.6265 36.2743 75.6209 36.2706ZM75.7737 36.3168C75.7551 36.3149 75.7383 36.3075 75.7215 36.3038C75.7383 36.3075 75.7551 36.3149 75.7737 36.3168ZM75.9023 36.3223C75.9097 36.3223 75.9153 36.3242 75.9228 36.3223C75.9153 36.3223 75.9097 36.3223 75.9023 36.3223ZM72.8966 36.4165C72.8798 36.3315 72.8519 36.2558 72.8388 36.169C72.8537 36.2577 72.8798 36.3334 72.8966 36.4165ZM72.0991 40.0797C72.1196 40.0907 72.1326 40.1074 72.1531 40.1185C72.1084 40.0944 72.073 40.0612 72.032 40.0353C72.0543 40.0501 72.0748 40.0667 72.0991 40.0797ZM72.8686 40.3918C72.7643 40.366 72.6786 40.3198 72.5817 40.2847C72.6786 40.3198 72.7643 40.366 72.8686 40.3918ZM71.5419 38.3174C71.3388 38.3081 71.1562 38.2786 70.9736 38.2509C70.9102 38.2416 70.845 38.2342 70.7854 38.2232C70.6456 37.6893 70.5711 37.0668 70.5748 36.3315L70.5841 34.2016C70.7257 34.8962 71.0034 35.4633 71.4226 35.8642L73.7333 38.0717C73.7184 38.0587 73.709 38.0384 73.696 38.0255C73.7631 38.0938 73.8414 38.1474 73.9159 38.2065L72.427 38.31C72.1102 38.3321 71.8196 38.3303 71.5419 38.3174ZM73.0159 36.9005C73.0475 36.991 73.0904 37.0686 73.1277 37.1536C73.0904 37.0686 73.0457 36.991 73.0159 36.9005ZM73.3028 37.5212C73.3513 37.6025 73.4128 37.669 73.4668 37.7429C73.4109 37.6671 73.3513 37.6006 73.3028 37.5212ZM80.4304 27.5921L78.9583 26.1863L79.9105 26.1198C80.1956 26.0995 80.436 26.3249 80.4341 26.6057L80.4304 27.5921ZM75.7048 33.9726L75.2836 34.0021L75.3004 30.2522L75.5911 30.5311L75.7197 30.5219L75.7048 33.9726ZM77.3706 10.5658C77.5626 10.5529 77.7396 10.5621 77.9166 10.5732C77.9259 10.5732 77.9334 10.575 77.9427 10.5769C77.7564 10.5621 77.57 10.551 77.3706 10.5658ZM77.9334 13.2277C77.9148 13.2019 77.898 13.1723 77.8775 13.152C77.898 13.1723 77.9148 13.2019 77.9334 13.2277ZM78.5651 10.6766C78.5781 10.6803 78.5893 10.6859 78.6024 10.6914C78.4999 10.6619 78.3937 10.6397 78.2837 10.6212C78.3788 10.6378 78.4738 10.6526 78.5651 10.6766ZM79.1372 10.9057C79.1558 10.9149 79.1707 10.9297 79.1893 10.9408C79.1036 10.8909 79.0123 10.8521 78.921 10.8115C78.9937 10.841 79.0701 10.8669 79.1372 10.9057ZM80.8347 6.572C80.8049 6.56461 80.7751 6.55722 80.7434 6.55168C80.7471 6.55168 80.7509 6.55353 80.7546 6.55353C80.7826 6.56092 80.8086 6.56646 80.8347 6.572ZM80.0856 6.44639C80.0446 6.44084 80.0055 6.4353 79.9645 6.43161C79.9664 6.43161 79.9701 6.43161 79.9738 6.43161C80.0111 6.43715 80.0484 6.44269 80.0856 6.44639ZM79.1558 6.38173C79.1856 6.38173 79.2136 6.38543 79.2434 6.38543C79.2136 6.38543 79.1837 6.38173 79.1539 6.38173C79.1539 6.38173 79.1539 6.38173 79.1558 6.38173ZM81.4701 6.7438C81.4739 6.74564 81.4757 6.74564 81.4795 6.74564C81.4944 6.75119 81.5074 6.75488 81.5223 6.76042C81.5056 6.75488 81.4869 6.74934 81.4701 6.7438ZM82.1466 7.00796C82.1484 7.00796 82.1503 7.0098 82.1522 7.01165C82.1503 7.0098 82.1466 7.0098 82.1447 7.00796C82.1466 7.00611 82.1466 7.00796 82.1466 7.00796ZM69.2015 40.85C69.1493 40.7742 69.0915 40.7022 69.0412 40.6228C69.0915 40.7003 69.1493 40.7724 69.2015 40.85ZM68.8791 40.3198C68.8344 40.2367 68.7859 40.1572 68.7449 40.0704C68.7859 40.1572 68.8344 40.2367 68.8791 40.3198ZM68.6089 39.7342C68.5735 39.6437 68.5325 39.5587 68.5008 39.4645C68.5344 39.5569 68.5735 39.6437 68.6089 39.7342ZM68.3927 39.0877C68.3667 38.9916 68.335 38.9011 68.3108 38.8032C68.335 38.9029 68.3667 38.9935 68.3927 39.0877ZM68.2306 38.3746C68.2139 38.2804 68.1915 38.1899 68.1766 38.092C68.1915 38.1881 68.212 38.2786 68.2306 38.3746ZM68.1207 37.5692C68.1132 37.4861 68.1002 37.4085 68.0946 37.3254C68.102 37.4085 68.1132 37.4861 68.1207 37.5692ZM69.3915 41.116C69.4493 41.188 69.5164 41.2545 69.5779 41.3229C69.5164 41.2545 69.4512 41.1899 69.3915 41.116ZM73.4389 40.4805C73.5376 40.4916 73.6233 40.5175 73.7277 40.523C73.6233 40.5175 73.5376 40.4935 73.4389 40.4805ZM78.0955 13.7967C78.1067 13.9131 78.1123 14.0461 78.1104 14.1994C78.1123 14.0461 78.1067 13.9131 78.0955 13.7967ZM77.9744 13.2887C77.9912 13.3238 78.0042 13.37 78.0191 13.4143C78.0061 13.37 77.993 13.3219 77.9744 13.2887ZM78.0489 13.4993C78.062 13.5547 78.0713 13.6286 78.0806 13.6988C78.0713 13.6286 78.062 13.5547 78.0489 13.4993ZM82.0068 10.1058C82.0739 10.1945 82.154 10.2702 82.2137 10.3681C82.154 10.2702 82.0739 10.1945 82.0068 10.1058ZM82.4186 10.8337C82.4615 10.939 82.5174 11.0313 82.5528 11.1458C82.5192 11.0295 82.4633 10.939 82.4186 10.8337ZM82.6851 11.7721C82.7056 11.8829 82.7373 11.9771 82.7522 12.0935C82.7373 11.9771 82.7056 11.8829 82.6851 11.7721ZM83.1882 7.64342C83.1901 7.64527 83.1938 7.64711 83.1975 7.64896C83.2143 7.66189 83.2311 7.67667 83.246 7.6896C83.2255 7.67482 83.2068 7.66004 83.1882 7.64342Z" fill="black"/>
<path d="M118.707 1.57319L117.74 6.0325C117.63 6.53865 116.905 6.54604 116.784 6.04174L116.271 3.8989C116.249 3.80838 116.202 3.72526 116.135 3.6606L114.083 1.70249C113.983 1.60644 113.847 1.55841 113.709 1.56764L107.249 2.01468C106.941 2.03685 106.729 2.33057 106.809 2.62428L112.701 24.3925C112.712 24.435 112.718 24.4775 112.718 24.52L112.66 37.7834C112.66 37.9164 112.714 38.0439 112.811 38.1362L114.814 40.05C114.915 40.1461 115.051 40.1941 115.188 40.1849L121.714 39.7323C121.969 39.7138 122.169 39.5032 122.171 39.2501L122.227 26.2269C122.227 26.1862 122.232 26.1456 122.243 26.105L128.309 3.19509C128.353 3.02514 128.303 2.84411 128.175 2.72219L126.227 0.861986C126.127 0.765928 125.991 0.717899 125.853 0.727135L119.152 1.1908C118.934 1.20743 118.753 1.3626 118.707 1.57319ZM112.496 6.50171L114.717 15.7787L112.211 6.52203L112.496 6.50171ZM117.449 25.8703L115.526 18.7713L117.715 20.8624L118.213 20.8273L117.481 23.5945C117.469 23.6333 117.466 23.6739 117.464 23.7146L117.449 25.8703Z" fill="black"/>
<path d="M106.637 19.8243L106.673 11.4691C106.684 9.02518 106.002 7.22593 104.709 6.12311C104.776 6.18038 104.847 6.2321 104.91 6.29306L102.599 4.08557C102.519 4.00983 102.437 3.93594 102.352 3.86574C102.333 3.84912 102.309 3.83988 102.288 3.8251C102.057 3.64038 101.809 3.47597 101.541 3.33558C101.522 3.32634 101.507 3.31156 101.489 3.30048C101.437 3.27462 101.379 3.2543 101.327 3.23028C101.219 3.17856 101.109 3.13053 100.995 3.0862C100.907 3.05294 100.818 3.02154 100.728 2.99198C100.611 2.95319 100.492 2.91809 100.369 2.88484C100.274 2.86083 100.177 2.83681 100.08 2.81649C99.9533 2.78878 99.8229 2.76662 99.6924 2.7463C99.5899 2.73152 99.4875 2.71489 99.3831 2.70381C99.2452 2.68903 99.1036 2.6798 98.962 2.67056C98.8893 2.66686 98.8222 2.65578 98.7496 2.65393C98.7179 2.65209 98.6843 2.65578 98.6527 2.65578C98.362 2.65024 98.0638 2.65209 97.7526 2.67425L87.7498 3.36698C87.4945 3.38545 87.2952 3.59604 87.2933 3.84912L87.1405 39.555C87.1405 39.688 87.1945 39.8155 87.2914 39.9079L89.2946 41.8216C89.3952 41.9177 89.5313 41.9657 89.6691 41.9565L96.2023 41.5039C96.4576 41.4854 96.6569 41.2749 96.6588 41.0218L96.6923 33.1007L97.9856 38.8679C98.0061 38.9602 98.0545 39.0452 98.1234 39.1117L100.171 41.068C100.272 41.164 100.408 41.212 100.546 41.2028L106.788 40.7705C107.088 40.7502 107.299 40.4676 107.232 40.1776L104.066 26.5521C104.025 26.3729 104.094 26.19 104.237 26.0718C105.819 24.7658 106.624 22.6728 106.637 19.8243ZM101.815 36.2724L99.3477 25.2756C99.3272 25.1833 99.2788 25.0983 99.2098 25.0318L97.952 23.8311L98.5651 23.7886C98.7197 23.7775 98.8614 23.7461 99.0067 23.7202L101.915 36.2669L101.815 36.2724ZM103.868 5.5523C103.818 5.52459 103.766 5.49873 103.714 5.47472C103.76 5.49689 103.807 5.51905 103.853 5.54307C103.859 5.54491 103.863 5.54861 103.868 5.5523ZM103.334 5.30477C103.27 5.27891 103.205 5.25674 103.14 5.23457C103.196 5.25489 103.252 5.27152 103.306 5.29369C103.315 5.29553 103.324 5.30107 103.334 5.30477ZM103.425 8.5338C103.341 8.41558 103.261 8.29366 103.16 8.1939C103.261 8.29366 103.341 8.41742 103.425 8.5338ZM102.706 5.09972C102.644 5.0831 102.581 5.06832 102.517 5.05354C102.571 5.06647 102.627 5.07755 102.679 5.09233C102.689 5.09418 102.696 5.09603 102.706 5.09972ZM102.024 4.95748C101.964 4.94825 101.902 4.93901 101.841 4.93162C101.895 4.93901 101.949 4.94455 102.001 4.95379C102.009 4.95379 102.016 4.95563 102.024 4.95748ZM101.289 4.8799C101.22 4.8762 101.153 4.87251 101.083 4.86881C101.146 4.87066 101.209 4.87435 101.271 4.87805C101.278 4.87805 101.284 4.8799 101.289 4.8799ZM101.31 7.39958C101.509 7.42544 101.671 7.57507 101.711 7.77088C101.809 8.25302 101.861 8.8035 101.858 9.43712L101.848 11.4784C101.683 10.6748 101.317 10.0578 100.779 9.65325C100.857 9.71236 100.943 9.76224 101.014 9.82874L98.703 7.62125C98.6601 7.58061 98.6154 7.53997 98.5688 7.50118C98.5558 7.49009 98.539 7.48455 98.5259 7.47347L100.052 7.36817C100.518 7.33307 100.932 7.34785 101.31 7.39958ZM99.2005 9.09907C99.2079 9.09907 99.2135 9.10091 99.2191 9.10091C99.0291 9.08798 98.8353 9.0769 98.6284 9.09168C98.8297 9.0769 99.016 9.08613 99.2005 9.09907ZM97.1507 11.6686L97.1247 17.833C97.1247 17.9771 97.1172 18.1027 97.106 18.2172C97.1023 18.2541 97.0948 18.2837 97.0911 18.3188C97.0818 18.3871 97.0706 18.4555 97.0576 18.5128C97.0501 18.546 97.0389 18.5737 97.0296 18.6033C97.0147 18.6495 96.9998 18.6938 96.983 18.7307C96.97 18.7566 96.957 18.7788 96.9439 18.8009C96.9215 18.8379 96.8973 18.8767 96.8712 18.9044C96.8694 18.9062 96.8656 18.9099 96.8638 18.9136C96.8302 18.9487 96.7911 18.9746 96.7538 18.9967L96.7855 11.6926L97.1507 11.6686ZM99.2769 11.7573C99.2918 11.7776 99.3086 11.7942 99.3216 11.8201C99.3086 11.7942 99.2918 11.7776 99.2769 11.7573ZM99.3682 11.9402C99.3794 11.9697 99.3924 11.9937 99.4017 12.0288C99.3924 11.9937 99.3794 11.9697 99.3682 11.9402ZM99.4334 12.2173C99.439 12.2542 99.4465 12.2819 99.4502 12.3244C99.4465 12.2838 99.439 12.2542 99.4334 12.2173ZM99.5862 9.14894C99.5862 9.14894 99.5881 9.14894 99.5862 9.14894C99.6868 9.16741 99.7875 9.18219 99.8806 9.20805C99.89 9.2099 99.8993 9.21544 99.9086 9.21729C99.8042 9.18774 99.6962 9.16741 99.5862 9.14894ZM100.479 9.44266C100.492 9.45005 100.503 9.45928 100.516 9.46667C100.428 9.4168 100.333 9.378 100.238 9.33736C100.319 9.37246 100.402 9.40202 100.479 9.44266ZM92.0301 21.993L93.2767 23.1827L92.0245 23.2695L92.0301 21.993ZM104.112 10.5141C104.152 10.8595 104.172 11.2345 104.17 11.6428C104.172 11.2345 104.152 10.8595 104.112 10.5141ZM103.615 8.79611C103.691 8.93281 103.747 9.09722 103.807 9.25608C103.745 9.09722 103.691 8.93281 103.615 8.79611ZM103.93 9.56643C103.986 9.75854 104.017 9.98021 104.055 10.1982C104.017 9.98021 103.984 9.75854 103.93 9.56643Z" fill="black"/>
<path d="M138.099 29.4503L138.856 2.40627C138.859 2.26957 138.805 2.13842 138.707 2.04236L136.705 0.135973C136.605 0.0399149 136.469 -0.00811416 136.331 0.00112219L129.265 0.490649C129.004 0.509122 128.803 0.7271 128.808 0.985718L129.382 27.4867C129.384 27.6141 129.438 27.7379 129.531 27.8266L130.278 28.5396L129.364 28.6024C129.108 28.6209 128.909 28.8315 128.907 29.0846L128.873 36.6621C128.873 36.7951 128.927 36.9225 129.024 37.0149L131.028 38.9287C131.128 39.0247 131.264 39.0728 131.402 39.0635L138.218 38.5906C138.474 38.5722 138.673 38.3616 138.675 38.1085L138.707 30.531C138.707 30.398 138.653 30.2705 138.556 30.1782L137.814 29.4706L138.099 29.4503ZM133.662 5.03494L133.916 5.01646L133.772 10.1426L133.662 5.03494ZM133.703 34.0611L133.707 33.1504L133.882 33.1375L133.879 34.0482L133.703 34.0611Z" fill="black"/>
<path d="M132.47 37.2329L132.49 32.4466C132.492 32.1917 132.69 31.9811 132.947 31.9645L136.966 31.6855C137.251 31.6652 137.492 31.8906 137.49 32.1714L137.469 36.9577C137.468 37.2126 137.27 37.4232 137.013 37.4398L132.994 37.7187C132.71 37.739 132.468 37.5155 132.47 37.2329Z" fill="white"/>
<path d="M18.9229 12.2799L18.7813 45.1872C18.7794 45.4422 18.5819 45.6527 18.3248 45.6694L14.6054 45.928C14.3203 45.9483 14.0799 45.7229 14.0818 45.4422L14.1433 31.1018C14.1451 30.8192 13.9029 30.5956 13.6197 30.616L8.82139 30.9485C8.5661 30.9669 8.36671 31.1775 8.36485 31.4306L8.30336 45.9151C8.3015 46.17 8.10397 46.3806 7.84682 46.3972L4.12 46.6558C3.8349 46.6761 3.59452 46.4508 3.59639 46.17L3.738 13.2627C3.73987 13.0078 3.93739 12.7972 4.19454 12.7805L7.92136 12.5219C8.20646 12.5016 8.44684 12.727 8.44498 13.0078L8.38535 26.3506C8.38349 26.6332 8.62573 26.8568 8.90897 26.8364L13.7072 26.5039C13.9625 26.4855 14.1619 26.2749 14.1638 26.0218L14.2215 12.533C14.2234 12.2781 14.4209 12.0675 14.6781 12.0509L18.3975 11.7923C18.6826 11.7719 18.9229 11.9973 18.9229 12.2799Z" fill="white"/>
<path d="M35.1905 10.6286C38.9453 10.3681 40.8124 12.1711 40.7957 16.0356L40.6764 43.6671C40.6746 43.922 40.477 44.1326 40.2199 44.1492L36.5005 44.4078C36.2154 44.4281 35.975 44.2028 35.9769 43.922L36.0254 32.5539C36.0272 32.2712 35.785 32.0477 35.5017 32.068L31.0929 32.3728C30.8376 32.3913 30.6382 32.6019 30.6364 32.855L30.5861 44.3672C30.5842 44.6221 30.3867 44.8327 30.1295 44.8493L26.4102 45.1079C26.1251 45.1283 25.8847 44.9029 25.8865 44.6221L26.0058 17.0627C26.0226 13.1982 27.9046 11.1348 31.6594 10.8743L35.1905 10.6286ZM36.0459 27.9283L36.0943 16.6526C36.0999 15.3299 35.4197 14.7148 34.0483 14.8108L32.7737 14.8995C31.4022 14.9937 30.709 15.7031 30.7035 17.0276L30.6569 27.7805C30.655 28.0632 30.8973 28.2867 31.1805 28.2664L36.0459 27.9283Z" fill="white"/>
<path d="M62.3684 9.26721L62.2267 42.1745C62.2249 42.4294 62.0274 42.64 61.7702 42.6566L58.0508 42.9153C57.7657 42.9356 57.5254 42.7102 57.5272 42.4294L57.5533 36.2817C57.5533 36.23 57.5459 36.1783 57.5291 36.1284L53.519 23.977C53.3457 23.4524 52.565 23.5743 52.5631 24.1267L52.483 42.8506C52.4811 43.1055 52.2836 43.3161 52.0264 43.3327L48.3071 43.5914C48.022 43.6117 47.7816 43.3863 47.7835 43.1055L47.9251 10.1982C47.9269 9.94331 48.1245 9.73272 48.3816 9.71609L52.2389 9.44824C52.4662 9.43161 52.6749 9.57385 52.742 9.78998L56.657 22.4032C56.8229 22.9352 57.6129 22.8188 57.6148 22.2628L57.6688 9.52213C57.6707 9.26721 57.8682 9.05662 58.1254 9.03999L61.8447 8.78137C62.128 8.76105 62.3702 8.98457 62.3684 9.26721Z" fill="white"/>
<path d="M78.1496 7.65067C82.1298 7.37543 84.1143 9.19868 84.0976 13.1315L84.0845 16.3606C84.0826 16.6155 83.8851 16.8261 83.628 16.8427L79.9086 17.1013C79.6235 17.1216 79.3831 16.8963 79.385 16.6155L79.3962 14.1198C79.4036 12.485 78.7328 11.7128 77.3986 11.8052L76.2209 11.8865C74.8495 11.9807 74.1563 12.847 74.1488 14.4819L74.0594 35.2434C74.0519 36.8856 74.7377 37.6559 76.111 37.5617L78.8427 37.3714C79.098 37.353 79.2974 37.1424 79.2993 36.8893L79.331 29.5538C79.3328 29.2711 79.0906 29.0476 78.8073 29.0679L77.4098 29.164C77.1247 29.1843 76.8843 28.959 76.8862 28.6782L76.8992 25.5489C76.9011 25.294 77.0986 25.0834 77.3557 25.0667L83.5274 24.6382C83.8125 24.6179 84.0528 24.8432 84.051 25.124L83.9839 40.667C83.982 40.9219 83.7845 41.1325 83.5274 41.1491L74.7693 41.7569C71.1487 42.0081 69.3431 40.231 69.3599 36.4256L69.4568 14.0515C69.4735 10.187 71.2959 8.12727 74.9165 7.87604L78.1496 7.65067Z" fill="white"/>
<path d="M102.687 26.0753L105.698 39.0487C105.765 39.3387 105.555 39.6214 105.255 39.6417L101.787 39.8818C101.545 39.8985 101.327 39.7378 101.275 39.5032L98.4291 26.8493C98.377 26.6147 98.1589 26.454 97.9167 26.4707L95.9508 26.6074C95.6955 26.6258 95.4961 26.8364 95.4943 27.0895L95.4384 39.8726C95.4365 40.1275 95.239 40.3381 94.9818 40.3548L91.2625 40.6134C90.9774 40.6337 90.737 40.4083 90.7388 40.1275L90.8805 7.22024C90.8823 6.96531 91.0798 6.75472 91.337 6.7381L100.088 6.13219C103.686 5.88281 105.469 7.69129 105.452 11.5558L105.417 19.911C105.406 22.693 104.575 24.5735 102.926 25.5489C102.741 25.6579 102.639 25.8648 102.687 26.0753ZM100.719 19.9516L100.751 12.6364C100.758 11.0016 100.058 10.2331 98.6546 10.3292L96.0197 10.5121C95.7645 10.5305 95.5651 10.7411 95.5632 10.9942L95.5148 22.2404C95.5129 22.523 95.7551 22.7466 96.0384 22.7262L98.6006 22.5489C100.004 22.4547 100.712 21.5883 100.719 19.9516Z" fill="white"/>
<path d="M126.617 4.93355L121.032 26.0349C121.021 26.0737 121.016 26.1144 121.016 26.1569L120.963 38.1032C120.962 38.3581 120.764 38.5687 120.507 38.5853L116.78 38.8439C116.495 38.8642 116.255 38.6389 116.256 38.3581L116.307 26.4875C116.307 26.445 116.301 26.4007 116.29 26.3601L110.774 5.96987C110.694 5.67431 110.907 5.38059 111.214 5.36027L114.861 5.10719C115.099 5.09057 115.315 5.24759 115.371 5.48034L118.742 19.5529L118.884 19.5436L122.055 4.96126C122.102 4.75067 122.283 4.59365 122.501 4.57887L126.106 4.32949C126.442 4.30363 126.701 4.61212 126.617 4.93355Z" fill="white"/>
<path d="M136.471 28.3235L133.461 28.5323C133.182 28.5508 132.943 28.3346 132.938 28.0575L132.427 4.35149C132.421 4.09287 132.623 3.8749 132.884 3.85642L137.072 3.5664C137.361 3.54608 137.605 3.77699 137.596 4.06516L136.925 27.8543C136.92 28.1019 136.722 28.3069 136.471 28.3235Z" fill="white"/>
</svg>
